<svg width="117" height="51" viewBox="0 0 117 51" fill="none" xmlns="http://www.w3.org/2000/svg">
<path d="M75.8006 27.0598C77.1989 28.271 78 30.0262 78 31.875V43.5625C78 46.75 75.875 48.875 72.6875 48.875C69.7529 48.875 67.375 46.4971 67.375 43.5625C67.375 40.6279 69.7529 38.25 72.6875 38.25C73.0509 38.25 73.4057 38.2882 73.75 38.3562V31.875C73.75 31.2503 73.4886 30.6807 73.0169 30.2706C72.543 29.8605 71.9437 29.6714 71.3254 29.7734L64.9504 30.685C63.9091 30.8316 63.125 31.7369 63.125 32.7866V45.6875C63.125 48.875 61 51 57.8125 51C54.8779 51 52.5 48.6221 52.5 45.6875C52.5 42.7529 54.8779 40.375 57.8125 40.375C58.1759 40.375 58.5307 40.4132 58.875 40.4812V32.7845C58.875 29.6331 61.2274 26.9195 64.349 26.4754L70.724 25.5637C72.5579 25.296 74.4045 25.8464 75.8027 27.0576L75.8006 27.0598ZM78 14.875V19.125C78 20.298 77.048 21.25 75.875 21.25C74.702 21.25 73.75 20.298 73.75 19.125V17H31.25V36.125C31.25 39.6398 34.1102 42.5 37.625 42.5H46.125C47.298 42.5 48.25 43.4499 48.25 44.625C48.25 45.8001 47.298 46.75 46.125 46.75H37.625C31.7664 46.75 27 41.9836 27 36.125V10.625C27 4.76638 31.7664 0 37.625 0H42.997C43.9809 0 44.9669 0.231625 45.8466 0.6715L52.5531 4.02475C52.8464 4.17138 53.1758 4.24787 53.503 4.24787H67.375C73.2336 4.24787 78 9.01638 78 14.875ZM31.25 12.75H73.359C72.4792 10.2829 70.1418 8.5 67.375 8.5H53.503C52.5191 8.5 51.5331 8.26838 50.6534 7.8285L43.9469 4.47525C43.6536 4.32862 43.3242 4.25212 42.997 4.25212H37.625C34.1102 4.25212 31.25 7.11237 31.25 10.6271V12.75Z" fill="#BF59FD" fill-opacity="0.21"/>
<path d="M16.6504 24V21.45L12.8604 16.85H14.8404L17.4504 20.09L20.0504 16.85H22.0304L18.2604 21.44V24H16.6504ZM23.9214 24.05C23.0281 24.05 22.3314 23.83 21.8314 23.39C21.3314 22.9433 21.0814 22.29 21.0814 21.43C21.0814 20.5633 21.3314 19.91 21.8314 19.47C22.3314 19.0233 23.0281 18.8 23.9214 18.8H25.7714C26.6648 18.8 27.3614 19.0233 27.8614 19.47C28.3614 19.91 28.6114 20.5633 28.6114 21.43C28.6114 22.29 28.3614 22.9433 27.8614 23.39C27.3614 23.83 26.6648 24.05 25.7714 24.05H23.9214ZM23.9214 22.9H25.7714C26.2048 22.9 26.5348 22.78 26.7614 22.54C26.9948 22.3 27.1114 21.93 27.1114 21.43C27.1114 20.9233 26.9948 20.55 26.7614 20.31C26.5348 20.07 26.2048 19.95 25.7714 19.95H23.9214C23.4881 19.95 23.1548 20.07 22.9214 20.31C22.6948 20.55 22.5814 20.9233 22.5814 21.43C22.5814 21.93 22.6948 22.3 22.9214 22.54C23.1548 22.78 23.4881 22.9 23.9214 22.9ZM31.1539 24C30.5672 24 30.1372 23.8533 29.8639 23.56C29.5972 23.2667 29.4639 22.8867 29.4639 22.42V18.85H30.9139V22.25C30.9139 22.65 31.1139 22.85 31.5139 22.85H33.5939C33.9939 22.85 34.1939 22.65 34.1939 22.25V18.85H35.6439V22.42C35.6439 22.8867 35.5072 23.2667 35.2339 23.56C34.9672 23.8533 34.5405 24 33.9539 24H31.1539ZM46.5277 24H45.0777V16.85H46.5277V24ZM46.2777 24H42.8277C41.9344 24 41.2377 23.78 40.7377 23.34C40.2377 22.9 39.9877 22.2633 39.9877 21.43C39.9877 20.59 40.2377 19.95 40.7377 19.51C41.2377 19.07 41.9344 18.85 42.8277 18.85H46.1777V20H42.8277C42.3944 20 42.061 20.12 41.8277 20.36C41.601 20.5933 41.4877 20.95 41.4877 21.43C41.4877 21.9033 41.601 22.26 41.8277 22.5C42.061 22.7333 42.3944 22.85 42.8277 22.85H46.2777V24ZM50.2691 24.05C49.3758 24.05 48.6791 23.83 48.1791 23.39C47.6791 22.9433 47.4291 22.29 47.4291 21.43C47.4291 20.5633 47.6791 19.91 48.1791 19.47C48.6791 19.0233 49.3758 18.8 50.2691 18.8H52.1191C53.0124 18.8 53.7091 19.0233 54.2091 19.47C54.7091 19.91 54.9591 20.5633 54.9591 21.43C54.9591 22.29 54.7091 22.9433 54.2091 23.39C53.7091 23.83 53.0124 24.05 52.1191 24.05H50.2691ZM50.2691 22.9H52.1191C52.5524 22.9 52.8824 22.78 53.1091 22.54C53.3424 22.3 53.4591 21.93 53.4591 21.43C53.4591 20.9233 53.3424 20.55 53.1091 20.31C52.8824 20.07 52.5524 19.95 52.1191 19.95H50.2691C49.8358 19.95 49.5024 20.07 49.2691 20.31C49.0424 20.55 48.9291 20.9233 48.9291 21.43C48.9291 21.93 49.0424 22.3 49.2691 22.54C49.5024 22.78 49.8358 22.9 50.2691 22.9ZM55.8615 24V18.85H60.3515C60.9382 18.85 61.3649 18.9967 61.6315 19.29C61.9049 19.5767 62.0415 19.9567 62.0415 20.43V24H60.5915V20.6C60.5915 20.2 60.3915 20 59.9915 20H57.3115V24H55.8615ZM63.1381 19.81V16.87H64.3381V19.81H63.1381ZM68.522 24C67.942 24 67.5153 23.8567 67.242 23.57C66.9687 23.2767 66.832 22.8933 66.832 22.42V20H65.342V18.85H66.832V17.27H68.282V18.85H70.422V20H68.282V22.24C68.282 22.6467 68.482 22.85 68.882 22.85H70.702V24H68.522ZM74.9436 24V16.85H76.3936V18.85H79.4336C80.0202 18.85 80.4469 18.9967 80.7136 19.29C80.9869 19.5767 81.1236 19.9567 81.1236 20.43V24H79.6736V20.6C79.6736 20.2 79.4736 20 79.0736 20H76.3936V24H74.9436ZM83.5401 24C83.0001 24 82.5868 23.8633 82.3001 23.59C82.0135 23.3167 81.8701 22.9267 81.8701 22.42C81.8701 21.92 82.0135 21.5333 82.3001 21.26C82.5868 20.9867 83.0001 20.85 83.5401 20.85H87.3801V20.61C87.3801 20.2033 87.1801 20 86.7801 20H82.5401V18.85H87.1601C87.7668 18.85 88.1968 18.99 88.4501 19.27C88.7035 19.5433 88.8301 19.93 88.8301 20.43V24H83.5401ZM83.8001 22.85H87.3801V22H83.8001C83.6735 22 83.5735 22.04 83.5001 22.12C83.4335 22.1933 83.4001 22.2933 83.4001 22.42C83.4001 22.5467 83.4335 22.65 83.5001 22.73C83.5735 22.81 83.6735 22.85 83.8001 22.85ZM91.5561 24L89.3861 18.85H90.9061L92.5861 22.84H93.0861L94.7661 18.85H96.2861L94.1161 24H91.5561ZM99.4781 24.05C98.5848 24.05 97.8881 23.83 97.3881 23.39C96.8881 22.9433 96.6381 22.29 96.6381 21.43C96.6381 20.5633 96.8881 19.91 97.3881 19.47C97.8881 19.0233 98.5848 18.8 99.4781 18.8H101.978C102.565 18.8 103.011 18.94 103.318 19.22C103.631 19.4933 103.788 19.8867 103.788 20.4C103.788 21.4467 103.185 21.97 101.978 21.97H98.1981C98.3381 22.59 98.7648 22.9 99.4781 22.9H103.528V24.05H99.4781ZM99.4781 19.95C98.7914 19.95 98.3681 20.24 98.2081 20.82H101.908C102.041 20.82 102.145 20.78 102.218 20.7C102.298 20.62 102.338 20.51 102.338 20.37C102.338 20.09 102.195 19.95 101.908 19.95H99.4781ZM1.86531 36C1.32531 36 0.911979 35.8633 0.625313 35.59C0.338646 35.3167 0.195313 34.9267 0.195313 34.42C0.195313 33.92 0.338646 33.5333 0.625313 33.26C0.911979 32.9867 1.32531 32.85 1.86531 32.85H5.70531V32.61C5.70531 32.2033 5.50531 32 5.10531 32H0.865313V30.85H5.48531C6.09198 30.85 6.52198 30.99 6.77531 31.27C7.02865 31.5433 7.15531 31.93 7.15531 32.43V36H1.86531ZM2.12531 34.85H5.70531V34H2.12531C1.99865 34 1.89865 34.04 1.82531 34.12C1.75865 34.1933 1.72531 34.2933 1.72531 34.42C1.72531 34.5467 1.75865 34.65 1.82531 34.73C1.89865 34.81 1.99865 34.85 2.12531 34.85ZM8.25898 36V30.85H12.749C13.3357 30.85 13.7623 30.9967 14.029 31.29C14.3023 31.5767 14.439 31.9567 14.439 32.43V36H12.989V32.6C12.989 32.2 12.789 32 12.389 32H9.70898V36H8.25898ZM16.6455 38.25V37.1H19.6655C20.0655 37.1 20.2655 36.8967 20.2655 36.49V36H17.1755C16.5889 36 16.1589 35.8533 15.8855 35.56C15.6189 35.2667 15.4855 34.8867 15.4855 34.42V30.85H16.9355V34.25C16.9355 34.65 17.1355 34.85 17.5355 34.85H20.2155V30.85H21.7155V36.67C21.7155 37.1433 21.5789 37.5233 21.3055 37.81C21.0322 38.1033 20.6055 38.25 20.0255 38.25H16.6455ZM26.3156 36V30.85H30.2556C30.8356 30.85 31.2623 30.9967 31.5356 31.29C31.809 31.5767 31.9456 31.9567 31.9456 32.43V33.5H30.4756V32.61C30.4756 32.21 30.2756 32.01 29.8756 32.01H27.7856V36H26.3156ZM34.1114 36C33.5714 36 33.1581 35.8633 32.8714 35.59C32.5847 35.3167 32.4414 34.9267 32.4414 34.42C32.4414 33.92 32.5847 33.5333 32.8714 33.26C33.1581 32.9867 33.5714 32.85 34.1114 32.85H37.9514V32.61C37.9514 32.2033 37.7514 32 37.3514 32H33.1114V30.85H37.7314C38.3381 30.85 38.7681 30.99 39.0214 31.27C39.2747 31.5433 39.4014 31.93 39.4014 32.43V36H34.1114ZM34.3714 34.85H37.9514V34H34.3714C34.2447 34 34.1447 34.04 34.0714 34.12C34.0047 34.1933 33.9714 34.2933 33.9714 34.42C33.9714 34.5467 34.0047 34.65 34.0714 34.73C34.1447 34.81 34.2447 34.85 34.3714 34.85ZM46.8451 36H45.3951V28.85H46.8451V36ZM46.5951 36H43.1451C42.2517 36 41.5551 35.78 41.0551 35.34C40.5551 34.9 40.3051 34.2633 40.3051 33.43C40.3051 32.59 40.5551 31.95 41.0551 31.51C41.5551 31.07 42.2517 30.85 43.1451 30.85H46.4951V32H43.1451C42.7117 32 42.3784 32.12 42.1451 32.36C41.9184 32.5933 41.8051 32.95 41.8051 33.43C41.8051 33.9033 41.9184 34.26 42.1451 34.5C42.3784 34.7333 42.7117 34.85 43.1451 34.85H46.5951V36ZM47.9465 36V30.85H49.3965V36H47.9465ZM47.9365 30V28.87H49.4065V30H47.9365ZM53.1353 36.05C52.242 36.05 51.5453 35.83 51.0453 35.39C50.5453 34.9433 50.2953 34.29 50.2953 33.43C50.2953 32.5633 50.5453 31.91 51.0453 31.47C51.5453 31.0233 52.242 30.8 53.1353 30.8H54.9853C55.8786 30.8 56.5753 31.0233 57.0753 31.47C57.5753 31.91 57.8253 32.5633 57.8253 33.43C57.8253 34.29 57.5753 34.9433 57.0753 35.39C56.5753 35.83 55.8786 36.05 54.9853 36.05H53.1353ZM53.1353 34.9H54.9853C55.4186 34.9 55.7486 34.78 55.9753 34.54C56.2086 34.3 56.3253 33.93 56.3253 33.43C56.3253 32.9233 56.2086 32.55 55.9753 32.31C55.7486 32.07 55.4186 31.95 54.9853 31.95H53.1353C52.702 31.95 52.3686 32.07 52.1353 32.31C51.9086 32.55 51.7953 32.9233 51.7953 33.43C51.7953 33.93 51.9086 34.3 52.1353 34.54C52.3686 34.78 52.702 34.9 53.1353 34.9ZM62.0538 36.05V34.9H66.9538C67.2338 34.9 67.3738 34.7433 67.3738 34.43C67.3738 34.1233 67.2338 33.97 66.9538 33.97H63.7838C63.1905 33.97 62.7405 33.8367 62.4338 33.57C62.1272 33.2967 61.9738 32.9067 61.9738 32.4C61.9738 31.8867 62.1272 31.4933 62.4338 31.22C62.7472 30.94 63.1972 30.8 63.7838 30.8H68.3438V31.95H63.8538C63.5672 31.95 63.4238 32.09 63.4238 32.37C63.4238 32.51 63.4638 32.62 63.5438 32.7C63.6238 32.78 63.7272 32.82 63.8538 32.82H67.2138C67.7338 32.82 68.1305 32.9567 68.4038 33.23C68.6838 33.4967 68.8238 33.8867 68.8238 34.4C68.8238 34.92 68.6838 35.3267 68.4038 35.62C68.1238 35.9067 67.7272 36.05 67.2138 36.05H62.0538ZM72.355 36C71.775 36 71.3483 35.8567 71.075 35.57C70.8017 35.2767 70.665 34.8933 70.665 34.42V32H69.175V30.85H70.665V29.27H72.115V30.85H74.255V32H72.115V34.24C72.115 34.6467 72.315 34.85 72.715 34.85H74.535V36H72.355ZM76.6505 36C76.1105 36 75.6971 35.8633 75.4105 35.59C75.1238 35.3167 74.9805 34.9267 74.9805 34.42C74.9805 33.92 75.1238 33.5333 75.4105 33.26C75.6971 32.9867 76.1105 32.85 76.6505 32.85H80.4905V32.61C80.4905 32.2033 80.2905 32 79.8905 32H75.6505V30.85H80.2705C80.8771 30.85 81.3071 30.99 81.5605 31.27C81.8138 31.5433 81.9405 31.93 81.9405 32.43V36H76.6505ZM76.9105 34.85H80.4905V34H76.9105C76.7838 34 76.6838 34.04 76.6105 34.12C76.5438 34.1933 76.5105 34.2933 76.5105 34.42C76.5105 34.5467 76.5438 34.65 76.6105 34.73C76.6838 34.81 76.7838 34.85 76.9105 34.85ZM85.7241 36C85.1441 36 84.7175 35.8567 84.4441 35.57C84.1708 35.2767 84.0341 34.8933 84.0341 34.42V32H82.5441V30.85H84.0341V29.27H85.4841V30.85H87.6241V32H85.4841V34.24C85.4841 34.6467 85.6841 34.85 86.0841 34.85H87.9041V36H85.7241ZM88.6496 36V30.85H90.0996V36H88.6496ZM88.6396 30V28.87H90.1096V30H88.6396ZM93.8384 36.05C92.9451 36.05 92.2484 35.83 91.7484 35.39C91.2484 34.9433 90.9984 34.29 90.9984 33.43C90.9984 32.5633 91.2484 31.91 91.7484 31.47C92.2484 31.0233 92.9451 30.8 93.8384 30.8H95.6884C96.5818 30.8 97.2784 31.0233 97.7784 31.47C98.2784 31.91 98.5284 32.5633 98.5284 33.43C98.5284 34.29 98.2784 34.9433 97.7784 35.39C97.2784 35.83 96.5818 36.05 95.6884 36.05H93.8384ZM93.8384 34.9H95.6884C96.1218 34.9 96.4518 34.78 96.6784 34.54C96.9118 34.3 97.0284 33.93 97.0284 33.43C97.0284 32.9233 96.9118 32.55 96.6784 32.31C96.4518 32.07 96.1218 31.95 95.6884 31.95H93.8384C93.4051 31.95 93.0718 32.07 92.8384 32.31C92.6118 32.55 92.4984 32.9233 92.4984 33.43C92.4984 33.93 92.6118 34.3 92.8384 34.54C93.0718 34.78 93.4051 34.9 93.8384 34.9ZM99.4309 36V30.85H103.921C104.508 30.85 104.934 30.9967 105.201 31.29C105.474 31.5767 105.611 31.9567 105.611 32.43V36H104.161V32.6C104.161 32.2 103.961 32 103.561 32H100.881V36H99.4309ZM106.487 36.05V34.9H111.387C111.667 34.9 111.807 34.7433 111.807 34.43C111.807 34.1233 111.667 33.97 111.387 33.97H108.217C107.624 33.97 107.174 33.8367 106.867 33.57C106.561 33.2967 106.407 32.9067 106.407 32.4C106.407 31.8867 106.561 31.4933 106.867 31.22C107.181 30.94 107.631 30.8 108.217 30.8H112.777V31.95H108.287C108.001 31.95 107.857 32.09 107.857 32.37C107.857 32.51 107.897 32.62 107.977 32.7C108.057 32.78 108.161 32.82 108.287 32.82H111.647C112.167 32.82 112.564 32.9567 112.837 33.23C113.117 33.4967 113.257 33.8867 113.257 34.4C113.257 34.92 113.117 35.3267 112.837 35.62C112.557 35.9067 112.161 36.05 111.647 36.05H106.487ZM0.807813 48V42.85H2.25781V48H0.807813ZM0.797813 42V40.87H2.26781V42H0.797813ZM3.35664 48V42.85H7.84664C8.43331 42.85 8.85997 42.9967 9.12664 43.29C9.39997 43.5767 9.53664 43.9567 9.53664 44.43V48H8.08664V44.6C8.08664 44.2 7.88664 44 7.48664 44H4.80664V48H3.35664ZM15.2393 50.25V49.1H18.2593C18.6593 49.1 18.8593 48.8967 18.8593 48.49V48H15.7693C15.1826 48 14.7526 47.8533 14.4793 47.56C14.2126 47.2667 14.0793 46.8867 14.0793 46.42V42.85H15.5293V46.25C15.5293 46.65 15.7293 46.85 16.1293 46.85H18.8093V42.85H20.3093V48.67C20.3093 49.1433 20.1726 49.5233 19.8993 49.81C19.626 50.1033 19.1993 50.25 18.6193 50.25H15.2393ZM24.0533 48.05C23.1599 48.05 22.4633 47.83 21.9633 47.39C21.4633 46.9433 21.2133 46.29 21.2133 45.43C21.2133 44.5633 21.4633 43.91 21.9633 43.47C22.4633 43.0233 23.1599 42.8 24.0533 42.8H25.9033C26.7966 42.8 27.4933 43.0233 27.9933 43.47C28.4933 43.91 28.7433 44.5633 28.7433 45.43C28.7433 46.29 28.4933 46.9433 27.9933 47.39C27.4933 47.83 26.7966 48.05 25.9033 48.05H24.0533ZM24.0533 46.9H25.9033C26.3366 46.9 26.6666 46.78 26.8933 46.54C27.1266 46.3 27.2433 45.93 27.2433 45.43C27.2433 44.9233 27.1266 44.55 26.8933 44.31C26.6666 44.07 26.3366 43.95 25.9033 43.95H24.0533C23.6199 43.95 23.2866 44.07 23.0533 44.31C22.8266 44.55 22.7133 44.9233 22.7133 45.43C22.7133 45.93 22.8266 46.3 23.0533 46.54C23.2866 46.78 23.6199 46.9 24.0533 46.9ZM31.2857 48C30.699 48 30.269 47.8533 29.9957 47.56C29.729 47.2667 29.5957 46.8867 29.5957 46.42V42.85H31.0457V46.25C31.0457 46.65 31.2457 46.85 31.6457 46.85H33.7257C34.1257 46.85 34.3257 46.65 34.3257 46.25V42.85H35.7757V46.42C35.7757 46.8867 35.639 47.2667 35.3657 47.56C35.099 47.8533 34.6724 48 34.0857 48H31.2857ZM36.8234 48V42.85H40.7634C41.3434 42.85 41.7701 42.9967 42.0434 43.29C42.3168 43.5767 42.4534 43.9567 42.4534 44.43V45.5H40.9834V44.61C40.9834 44.21 40.7834 44.01 40.3834 44.01H38.2934V48H36.8234ZM46.7453 50.25V42.85H50.4453C51.3386 42.85 52.0353 43.07 52.5353 43.51C53.0353 43.95 53.2853 44.5867 53.2853 45.42C53.2853 46.26 53.0353 46.9 52.5353 47.34C52.0353 47.78 51.3386 48 50.4453 48H48.1953V50.25H46.7453ZM50.4453 44H48.1953V46.85H50.4453C50.8786 46.85 51.2086 46.7333 51.4353 46.5C51.6686 46.26 51.7853 45.9 51.7853 45.42C51.7853 44.9467 51.6686 44.5933 51.4353 44.36C51.2086 44.12 50.8786 44 50.4453 44ZM54.1867 48V40.85H55.6367V48H54.1867ZM58.1055 48C57.5655 48 57.1522 47.8633 56.8655 47.59C56.5789 47.3167 56.4355 46.9267 56.4355 46.42C56.4355 45.92 56.5789 45.5333 56.8655 45.26C57.1522 44.9867 57.5655 44.85 58.1055 44.85H61.9455V44.61C61.9455 44.2033 61.7455 44 61.3455 44H57.1055V42.85H61.7255C62.3322 42.85 62.7622 42.99 63.0155 43.27C63.2689 43.5433 63.3955 43.93 63.3955 44.43V48H58.1055ZM58.3655 46.85H61.9455V46H58.3655C58.2389 46 58.1389 46.04 58.0655 46.12C57.9989 46.1933 57.9655 46.2933 57.9655 46.42C57.9655 46.5467 57.9989 46.65 58.0655 46.73C58.1389 46.81 58.2389 46.85 58.3655 46.85ZM65.6592 50.25V49.1H68.6792C69.0792 49.1 69.2792 48.8967 69.2792 48.49V48H66.1892C65.6026 48 65.1726 47.8533 64.8992 47.56C64.6326 47.2667 64.4992 46.8867 64.4992 46.42V42.85H65.9492V46.25C65.9492 46.65 66.1492 46.85 66.5492 46.85H69.2292V42.85H70.7292V48.67C70.7292 49.1433 70.5926 49.5233 70.3192 49.81C70.0459 50.1033 69.6192 50.25 69.0392 50.25H65.6592ZM71.8332 48V40.85H73.2832V48H71.8332ZM74.382 48V42.85H75.832V48H74.382ZM74.372 42V40.87H75.842V42H74.372ZM76.7609 48.05V46.9H81.6609C81.9409 46.9 82.0809 46.7433 82.0809 46.43C82.0809 46.1233 81.9409 45.97 81.6609 45.97H78.4909C77.8975 45.97 77.4475 45.8367 77.1409 45.57C76.8342 45.2967 76.6809 44.9067 76.6809 44.4C76.6809 43.8867 76.8342 43.4933 77.1409 43.22C77.4542 42.94 77.9042 42.8 78.4909 42.8H83.0509V43.95H78.5609C78.2742 43.95 78.1309 44.09 78.1309 44.37C78.1309 44.51 78.1709 44.62 78.2509 44.7C78.3309 44.78 78.4342 44.82 78.5609 44.82H81.9209C82.4409 44.82 82.8375 44.9567 83.1109 45.23C83.3909 45.4967 83.5309 45.8867 83.5309 46.4C83.5309 46.92 83.3909 47.3267 83.1109 47.62C82.8309 47.9067 82.4342 48.05 81.9209 48.05H76.7609ZM87.062 48C86.482 48 86.0554 47.8567 85.782 47.57C85.5087 47.2767 85.372 46.8933 85.372 46.42V44H83.882V42.85H85.372V41.27H86.822V42.85H88.962V44H86.822V46.24C86.822 46.6467 87.022 46.85 87.422 46.85H89.242V48H87.062ZM94.6436 50.25V49.1H97.6636C98.0636 49.1 98.2636 48.8967 98.2636 48.49V48H95.1736C94.5869 48 94.1569 47.8533 93.8836 47.56C93.6169 47.2667 93.4836 46.8867 93.4836 46.42V42.85H94.9336V46.25C94.9336 46.65 95.1336 46.85 95.5336 46.85H98.2136V42.85H99.7136V48.67C99.7136 49.1433 99.5769 49.5233 99.3036 49.81C99.0303 50.1033 98.6036 50.25 98.0236 50.25H94.6436ZM103.458 48.05C102.564 48.05 101.868 47.83 101.368 47.39C100.868 46.9433 100.618 46.29 100.618 45.43C100.618 44.5633 100.868 43.91 101.368 43.47C101.868 43.0233 102.564 42.8 103.458 42.8H105.958C106.544 42.8 106.991 42.94 107.298 43.22C107.611 43.4933 107.768 43.8867 107.768 44.4C107.768 45.4467 107.164 45.97 105.958 45.97H102.178C102.318 46.59 102.744 46.9 103.458 46.9H107.508V48.05H103.458ZM103.458 43.95C102.771 43.95 102.348 44.24 102.188 44.82H105.888C106.021 44.82 106.124 44.78 106.198 44.7C106.278 44.62 106.318 44.51 106.318 44.37C106.318 44.09 106.174 43.95 105.888 43.95H103.458ZM111.544 48C110.964 48 110.538 47.8567 110.264 47.57C109.991 47.2767 109.854 46.8933 109.854 46.42V44H108.364V42.85H109.854V41.27H111.304V42.85H113.444V44H111.304V46.24C111.304 46.6467 111.504 46.85 111.904 46.85H113.724V48H111.544ZM114.52 48V46.57H116.12V48H114.52Z" fill="white"/>
</svg>
