<svg width="113" height="16" viewBox="0 0 113 16" fill="none" xmlns="http://www.w3.org/2000/svg">
<path d="M0.84 11V2.42H8.028C8.916 2.42 9.604 2.644 10.092 3.092C10.588 3.54 10.836 4.22 10.836 5.132C10.836 5.908 10.656 6.516 10.296 6.956C9.936 7.396 9.424 7.672 8.76 7.784L10.74 11H8.556L6.72 7.844H2.76V11H0.84ZM7.8 3.98H2.76V6.272L7.8 6.284C8.152 6.284 8.42 6.196 8.604 6.02C8.796 5.844 8.892 5.548 8.892 5.132C8.892 4.708 8.796 4.412 8.604 4.244C8.42 4.068 8.152 3.98 7.8 3.98ZM13.7415 11C13.0935 11 12.5975 10.836 12.2535 10.508C11.9095 10.18 11.7375 9.712 11.7375 9.104C11.7375 8.504 11.9095 8.04 12.2535 7.712C12.5975 7.384 13.0935 7.22 13.7415 7.22H18.3495V6.932C18.3495 6.444 18.1095 6.2 17.6295 6.2H12.5415V4.82H18.0855C18.8135 4.82 19.3295 4.988 19.6335 5.324C19.9375 5.652 20.0895 6.116 20.0895 6.716V11H13.7415ZM14.0535 9.62H18.3495V8.6H14.0535C13.9015 8.6 13.7815 8.648 13.6935 8.744C13.6135 8.832 13.5735 8.952 13.5735 9.104C13.5735 9.256 13.6135 9.38 13.6935 9.476C13.7815 9.572 13.9015 9.62 14.0535 9.62ZM29.0219 11H27.2819V2.42H29.0219V11ZM28.7219 11H24.5819C23.5099 11 22.6739 10.736 22.0739 10.208C21.4739 9.68 21.1739 8.916 21.1739 7.916C21.1739 6.908 21.4739 6.14 22.0739 5.612C22.6739 5.084 23.5099 4.82 24.5819 4.82H28.6019V6.2H24.5819C24.0619 6.2 23.6619 6.344 23.3819 6.632C23.1099 6.912 22.9739 7.34 22.9739 7.916C22.9739 8.484 23.1099 8.912 23.3819 9.2C23.6619 9.48 24.0619 9.62 24.5819 9.62H28.7219V11ZM30.3436 11V4.82H32.0836V11H30.3436ZM30.3316 3.8V2.444H32.0956V3.8H30.3316ZM36.5702 11.06C35.4982 11.06 34.6622 10.796 34.0622 10.268C33.4622 9.732 33.1622 8.948 33.1622 7.916C33.1622 6.876 33.4622 6.092 34.0622 5.564C34.6622 5.028 35.4982 4.76 36.5702 4.76H38.7902C39.8622 4.76 40.6982 5.028 41.2982 5.564C41.8982 6.092 42.1982 6.876 42.1982 7.916C42.1982 8.948 41.8982 9.732 41.2982 10.268C40.6982 10.796 39.8622 11.06 38.7902 11.06H36.5702ZM36.5702 9.68H38.7902C39.3102 9.68 39.7062 9.536 39.9782 9.248C40.2582 8.96 40.3982 8.516 40.3982 7.916C40.3982 7.308 40.2582 6.86 39.9782 6.572C39.7062 6.284 39.3102 6.14 38.7902 6.14H36.5702C36.0502 6.14 35.6502 6.284 35.3702 6.572C35.0982 6.86 34.9622 7.308 34.9622 7.916C34.9622 8.516 35.0982 8.96 35.3702 9.248C35.6502 9.536 36.0502 9.68 36.5702 9.68ZM47.6564 11V2.444L54.8804 2.42C55.8324 2.42 56.5364 2.62 56.9924 3.02C57.4564 3.412 57.6884 4.004 57.6884 4.796C57.6884 5.588 57.4244 6.168 56.8964 6.536C57.2484 6.728 57.5084 6.984 57.6764 7.304C57.8444 7.616 57.9284 8.02 57.9284 8.516C57.9284 9.324 57.6964 9.94 57.2324 10.364C56.7764 10.78 56.0724 10.988 55.1204 10.988L47.6564 11ZM54.6524 3.956H49.5764V5.876H54.6524C55.3804 5.876 55.7444 5.548 55.7444 4.892C55.7444 4.268 55.3804 3.956 54.6524 3.956ZM54.8924 7.412H49.5764V9.452H54.8924C55.6204 9.452 55.9844 9.108 55.9844 8.42C55.9844 7.748 55.6204 7.412 54.8924 7.412ZM59.0663 11V4.82H63.7943C64.4903 4.82 65.0023 4.996 65.3303 5.348C65.6583 5.692 65.8223 6.148 65.8223 6.716V8H64.0583V6.932C64.0583 6.452 63.8183 6.212 63.3383 6.212H60.8303V11H59.0663ZM70.1796 11.06C69.1076 11.06 68.2716 10.796 67.6716 10.268C67.0716 9.732 66.7716 8.948 66.7716 7.916C66.7716 6.876 67.0716 6.092 67.6716 5.564C68.2716 5.028 69.1076 4.76 70.1796 4.76H72.3996C73.4716 4.76 74.3076 5.028 74.9076 5.564C75.5076 6.092 75.8076 6.876 75.8076 7.916C75.8076 8.948 75.5076 9.732 74.9076 10.268C74.3076 10.796 73.4716 11.06 72.3996 11.06H70.1796ZM70.1796 9.68H72.3996C72.9196 9.68 73.3156 9.536 73.5876 9.248C73.8676 8.96 74.0076 8.516 74.0076 7.916C74.0076 7.308 73.8676 6.86 73.5876 6.572C73.3156 6.284 72.9196 6.14 72.3996 6.14H70.1796C69.6596 6.14 69.2596 6.284 68.9796 6.572C68.7076 6.86 68.5716 7.308 68.5716 7.916C68.5716 8.516 68.7076 8.96 68.9796 9.248C69.2596 9.536 69.6596 9.68 70.1796 9.68ZM77.1785 11L76.5905 4.82H78.3425L78.7505 9.512L80.6105 8.672V4.82H82.3505V8.684L84.2105 9.512L84.6185 4.82H86.3705L85.7825 11H84.1385L81.4745 9.824L78.8225 11H77.1785ZM87.1865 11.06V9.68H93.0665C93.4025 9.68 93.5705 9.492 93.5705 9.116C93.5705 8.748 93.4025 8.564 93.0665 8.564H89.2625C88.5505 8.564 88.0105 8.404 87.6425 8.084C87.2745 7.756 87.0905 7.288 87.0905 6.68C87.0905 6.064 87.2745 5.592 87.6425 5.264C88.0185 4.928 88.5585 4.76 89.2625 4.76H94.7345V6.14H89.3465C89.0025 6.14 88.8305 6.308 88.8305 6.644C88.8305 6.812 88.8785 6.944 88.9745 7.04C89.0705 7.136 89.1945 7.184 89.3465 7.184H93.3785C94.0025 7.184 94.4785 7.348 94.8065 7.676C95.1425 7.996 95.3105 8.464 95.3105 9.08C95.3105 9.704 95.1425 10.192 94.8065 10.544C94.4705 10.888 93.9945 11.06 93.3785 11.06H87.1865ZM99.4999 11.06C98.4279 11.06 97.5919 10.796 96.9919 10.268C96.3919 9.732 96.0919 8.948 96.0919 7.916C96.0919 6.876 96.3919 6.092 96.9919 5.564C97.5919 5.028 98.4279 4.76 99.4999 4.76H102.5C103.204 4.76 103.74 4.928 104.108 5.264C104.484 5.592 104.672 6.064 104.672 6.68C104.672 7.936 103.948 8.564 102.5 8.564H97.9639C98.1319 9.308 98.6439 9.68 99.4999 9.68H104.36V11.06H99.4999ZM99.4999 6.14C98.6759 6.14 98.1679 6.488 97.9759 7.184H102.416C102.576 7.184 102.7 7.136 102.788 7.04C102.884 6.944 102.932 6.812 102.932 6.644C102.932 6.308 102.76 6.14 102.416 6.14H99.4999ZM105.754 11V4.82H110.482C111.178 4.82 111.69 4.996 112.018 5.348C112.346 5.692 112.51 6.148 112.51 6.716V8H110.746V6.932C110.746 6.452 110.506 6.212 110.026 6.212H107.518V11H105.754Z" fill="white"/>
<rect y="14" width="113" height="2" fill="#D9D9D9"/>
<rect y="14" width="26" height="2" fill="#BF59FD"/>
</svg>
