<svg width="254" height="512" viewBox="0 0 254 512" fill="none" xmlns="http://www.w3.org/2000/svg">
<path d="M253.314 32.1063C253.307 40.5904 249.931 48.7242 243.928 54.7197L80.2585 218.389C75.3045 223.342 71.3748 229.222 68.6936 235.693C66.0125 242.165 64.6325 249.101 64.6325 256.106C64.6325 263.111 66.0125 270.048 68.6936 276.519C71.3748 282.991 75.3045 288.871 80.2585 293.824L243.715 457.28C249.544 463.315 252.769 471.398 252.696 479.788C252.623 488.179 249.258 496.205 243.325 502.138C237.392 508.071 229.366 511.436 220.975 511.509C212.585 511.582 204.502 508.357 198.466 502.528L35.0105 339.2C13.0322 317.178 0.688477 287.336 0.688477 256.224C0.688477 225.111 13.0322 195.269 35.0105 173.248L198.68 9.47165C203.155 4.99344 208.858 1.9434 215.068 0.707476C221.277 -0.528452 227.713 0.105279 233.562 2.52848C239.411 4.95168 244.41 9.05544 247.926 14.3205C251.442 19.5855 253.317 25.7752 253.314 32.1063Z" fill="#BF59FD"/>
</svg>
