<svg width="254" height="512" viewBox="0 0 254 512" fill="none" xmlns="http://www.w3.org/2000/svg">
<path d="M0.685547 480C0.693016 471.516 4.06934 463.382 10.0722 457.387L173.742 293.717C178.695 288.765 182.625 282.885 185.306 276.413C187.988 269.941 189.367 263.005 189.367 256C189.367 248.995 187.988 242.059 185.306 235.587C182.625 229.115 178.695 223.235 173.742 218.283L10.2855 54.72C4.45648 48.6848 1.23107 40.6015 1.30398 32.2112C1.37688 23.8209 4.74229 15.7949 10.6754 9.86184C16.6084 3.92878 24.6344 0.563377 33.0247 0.490467C41.415 0.417558 49.4983 3.64298 55.5335 9.47204L218.99 172.907C240.968 194.928 253.312 224.77 253.312 255.883C253.312 286.995 240.968 316.837 218.99 338.859L55.3202 502.528C50.8513 507 45.1579 510.048 38.9585 511.287C32.7592 512.526 26.3316 511.902 20.4869 509.492C14.6422 507.082 9.64236 502.995 6.11826 497.746C2.59415 492.497 0.703729 486.322 0.685547 480Z" fill="#BF59FD"/>
</svg>
