<svg width="511" height="511" viewBox="0 0 511 511" fill="none" xmlns="http://www.w3.org/2000/svg">
<path d="M487.531 23.4907C473.027 9.00952 453.37 0.875977 432.875 0.875977C412.38 0.875977 392.722 9.00952 378.219 23.4907L31.2534 370.456C21.3174 380.336 13.4392 392.088 8.07464 405.033C2.71007 417.977 -0.0343953 431.857 1.44237e-05 445.869V489.667C1.44237e-05 495.325 2.24763 500.751 6.2484 504.752C10.2492 508.752 15.6754 511 21.3333 511H65.1307C79.1416 511.04 93.0212 508.3 105.966 502.939C118.911 497.578 130.664 489.702 140.544 479.768L487.531 132.781C502.005 118.279 510.135 98.6259 510.135 78.136C510.135 57.6461 502.005 37.9932 487.531 23.4907ZM110.379 449.603C98.3467 461.555 82.0899 468.284 65.1307 468.333H42.6667V445.869C42.6451 437.462 44.2913 429.134 47.5101 421.367C50.7289 413.6 55.4563 406.549 61.4187 400.621L324.736 137.304L373.803 186.371L110.379 449.603ZM457.344 102.616L403.883 156.099L354.816 107.139L408.299 53.656C411.52 50.4412 415.344 47.8925 419.551 46.1554C423.757 44.4183 428.265 43.5267 432.816 43.5317C437.368 43.5366 441.873 44.438 446.076 46.1843C450.279 47.9305 454.097 50.4876 457.312 53.7093C460.527 56.9311 463.076 60.7545 464.813 64.9613C466.55 69.168 467.441 73.6757 467.436 78.227C467.431 82.7783 466.53 87.2841 464.784 91.4871C463.037 95.69 460.48 99.5079 457.259 102.723L457.344 102.616Z" fill="#BF59FD"/>
</svg>
