<svg width="512" height="512" viewBox="0 0 512 512" fill="none" xmlns="http://www.w3.org/2000/svg">
<g clip-path="url(#clip0_1701_383)">
<path d="M349.76 215.936L238.997 155.285C224.64 147.2 207.573 147.349 193.387 155.648C179.157 163.968 170.688 178.752 170.688 195.221V316.8C170.688 333.269 179.157 348.053 193.387 356.373C200.64 360.619 208.619 362.709 216.576 362.709C224.213 362.709 231.851 360.768 238.784 356.864L349.973 295.979C364.629 287.744 373.355 272.811 373.355 256.021C373.355 239.232 364.629 224.299 349.781 215.957L349.76 215.936ZM329.259 258.667L218.069 319.573C217.664 319.787 216.427 320.469 214.933 319.552C213.355 318.635 213.355 317.269 213.355 316.821V195.243C213.355 194.795 213.355 193.429 214.933 192.512C215.509 192.171 216.043 192.064 216.512 192.064C217.28 192.064 217.899 192.405 218.283 192.619L329.045 253.291C329.451 253.525 330.667 254.208 330.667 256.064C330.667 257.92 329.429 258.603 329.259 258.731V258.667ZM256 0C114.837 0 0 114.837 0 256C0 397.163 114.837 512 256 512C397.163 512 512 397.163 512 256C512 114.837 397.163 0 256 0ZM256 469.333C138.368 469.333 42.6667 373.632 42.6667 256C42.6667 138.368 138.368 42.6667 256 42.6667C373.632 42.6667 469.333 138.368 469.333 256C469.333 373.632 373.632 469.333 256 469.333Z" fill="#BF59FD"/>
</g>
<defs>
<clipPath id="clip0_1701_383">
<rect width="512" height="512" fill="white"/>
</clipPath>
</defs>
</svg>
