<svg width="24" height="24" viewBox="0 0 24 24" fill="none" xmlns="http://www.w3.org/2000/svg">
<g clip-path="url(#clip0_1708_15)">
<path d="M22.965 12.734C23.623 13.304 24 14.13 24 15V20.5C24 22 23 23 21.5 23C20.119 23 19 21.881 19 20.5C19 19.119 20.119 18 21.5 18C21.671 18 21.838 18.018 22 18.05V15C22 14.706 21.877 14.438 21.655 14.245C21.432 14.052 21.15 13.963 20.859 14.011L17.859 14.44C17.369 14.509 17 14.935 17 15.429V21.5C17 23 16 24 14.5 24C13.119 24 12 22.881 12 21.5C12 20.119 13.119 19 14.5 19C14.671 19 14.838 19.018 15 19.05V15.428C15 13.945 16.107 12.668 17.576 12.459L20.576 12.03C21.439 11.904 22.308 12.163 22.966 12.733L22.965 12.734ZM24 7V9C24 9.552 23.552 10 23 10C22.448 10 22 9.552 22 9V8H2V17C2 18.654 3.346 20 5 20H9C9.552 20 10 20.447 10 21C10 21.553 9.552 22 9 22H5C2.243 22 0 19.757 0 17V5C0 2.243 2.243 0 5 0H7.528C7.991 0 8.455 0.109 8.869 0.316L12.025 1.894C12.163 1.963 12.318 1.999 12.472 1.999H19C21.757 1.999 24 4.243 24 7ZM2 6H21.816C21.402 4.839 20.302 4 19 4H12.472C12.009 4 11.545 3.891 11.131 3.684L7.975 2.106C7.837 2.037 7.682 2.001 7.528 2.001H5C3.346 2.001 2 3.347 2 5.001V6Z" fill="#BF59FD"/>
</g>
<defs>
<clipPath id="clip0_1708_15">
<rect width="24" height="24" fill="white"/>
</clipPath>
</defs>
</svg>
