<svg width="512" height="512" viewBox="0 0 512 512" fill="none" xmlns="http://www.w3.org/2000/svg">
<g clip-path="url(#clip0_1708_17)">
<path d="M170.667 149.333H480C488.487 149.333 496.626 145.962 502.627 139.961C508.629 133.96 512 125.82 512 117.333C512 108.846 508.629 100.707 502.627 94.7058C496.626 88.7047 488.487 85.3333 480 85.3333H170.667C162.18 85.3333 154.04 88.7047 148.039 94.7058C142.038 100.707 138.667 108.846 138.667 117.333C138.667 125.82 142.038 133.96 148.039 139.961C154.04 145.962 162.18 149.333 170.667 149.333Z" fill="white"/>
<path d="M480 234.667H170.667C162.18 234.667 154.04 238.038 148.039 244.039C142.038 250.04 138.667 258.18 138.667 266.667C138.667 275.154 142.038 283.293 148.039 289.294C154.04 295.295 162.18 298.667 170.667 298.667H480C488.487 298.667 496.626 295.295 502.627 289.294C508.629 283.293 512 275.154 512 266.667C512 258.18 508.629 250.04 502.627 244.039C496.626 238.038 488.487 234.667 480 234.667Z" fill="white"/>
<path d="M480 384H170.667C162.18 384 154.04 387.371 148.039 393.373C142.038 399.374 138.667 407.513 138.667 416C138.667 424.487 142.038 432.626 148.039 438.627C154.04 444.629 162.18 448 170.667 448H480C488.487 448 496.626 444.629 502.627 438.627C508.629 432.626 512 424.487 512 416C512 407.513 508.629 399.374 502.627 393.373C496.626 387.371 488.487 384 480 384Z" fill="white"/>
<path d="M53.3333 170.667C82.7885 170.667 106.667 146.789 106.667 117.333C106.667 87.8781 82.7885 64 53.3333 64C23.8781 64 0 87.8781 0 117.333C0 146.789 23.8781 170.667 53.3333 170.667Z" fill="white"/>
<path d="M53.3333 309.333C82.7885 309.333 106.667 285.455 106.667 256C106.667 226.545 82.7885 202.667 53.3333 202.667C23.8781 202.667 0 226.545 0 256C0 285.455 23.8781 309.333 53.3333 309.333Z" fill="white"/>
<path d="M53.3333 458.667C82.7885 458.667 106.667 434.789 106.667 405.333C106.667 375.878 82.7885 352 53.3333 352C23.8781 352 0 375.878 0 405.333C0 434.789 23.8781 458.667 53.3333 458.667Z" fill="white"/>
</g>
<defs>
<clipPath id="clip0_1708_17">
<rect width="512" height="512" fill="white"/>
</clipPath>
</defs>
</svg>
