<svg width="24" height="24" viewBox="0 0 24 24" fill="none" xmlns="http://www.w3.org/2000/svg">
<path d="M22.705 21.2531L18.306 16.8791C19.487 15.3181 20.116 13.2001 20.165 10.5501C20.06 4.45511 16.658 1.07711 10.577 1.03711C4.423 1.07611 1 4.64911 1 10.5491C1 16.7441 4.426 20.0611 10.589 20.0971C13.218 20.0811 15.328 19.4711 16.892 18.2921L21.295 22.6711C21.813 23.1631 22.426 22.9621 22.709 22.6671C23.092 22.2691 23.097 21.6421 22.705 21.2531ZM3 10.5671C3.097 5.53211 5.579 3.06811 10.576 3.03711C15.525 3.06911 18.079 5.60811 18.165 10.5491C18.071 15.6691 15.66 18.0671 10.589 18.0971C5.512 18.0671 3.1 15.6751 3 10.5671Z" fill="white"/>
</svg>
