<svg width="512" height="512" viewBox="0 0 512 512" fill="none" xmlns="http://www.w3.org/2000/svg">
<g clip-path="url(#clip0_1701_381)">
<path d="M256 0C114.837 0 0 114.837 0 256C0 397.163 114.837 512 256 512C397.163 512 512 397.163 512 256C512 114.837 397.163 0 256 0ZM256 469.333C138.368 469.333 42.6667 373.632 42.6667 256C42.6667 138.368 138.368 42.6667 256 42.6667C373.632 42.6667 469.333 138.368 469.333 256C469.333 373.632 373.632 469.333 256 469.333ZM298.667 149.333H213.333C178.048 149.333 149.333 178.048 149.333 213.333V298.667C149.333 333.952 178.048 362.667 213.333 362.667H298.667C333.952 362.667 362.667 333.952 362.667 298.667V213.333C362.667 178.048 333.952 149.333 298.667 149.333ZM320 298.667C320 310.421 310.421 320 298.667 320H213.333C201.579 320 192 310.421 192 298.667V213.333C192 201.579 201.579 192 213.333 192H298.667C310.421 192 320 201.579 320 213.333V298.667Z" fill="#BF59FD"/>
</g>
<defs>
<clipPath id="clip0_1701_381">
<rect width="512" height="512" fill="white"/>
</clipPath>
</defs>
</svg>
